<?xml version="1.0" encoding="utf-8"?>
<!-- Generator: Adobe Illustrator 27.0.0, SVG Export Plug-In . SVG Version: 6.00 Build 0)  -->
<svg version="1.1" id="Layer_1" xmlns="http://www.w3.org/2000/svg" xmlns:xlink="http://www.w3.org/1999/xlink" x="0px" y="0px"
	 viewBox="0 0 134 134" style="enable-background:new 0 0 134 134;" xml:space="preserve">
<style type="text/css">
	.st0{fill:#c88063;}
</style>
<g>
	<path class="st0" d="M32.59,130.37c-9.66-19.14-9.03-44.1,1.87-69.18c4.32-10.07,3.6-17.67-2.13-22.58
		C26.38,34,19,31.46,11.52,31.46c-2.52,0-5.03,0.28-7.48,0.83c8.48-4.36,18.24-6.56,29.07-6.56c11.75,0,24.79,2.67,37.72,7.73
		c4.67,1.75,9.23,3.32,13.73,3.32c4.29,0,7.82-1.45,10.8-4.43c6.87-7.73,9.07-18.08,6.26-28.86c7.65,13.24,9.3,30.51,4.9,51.4
		c-0.98,3.27-2.33,6.65-3.64,9.92c-2.64,6.6-5.37,13.42-5.37,20.19c0,0.49,0.18,1.11,0.39,1.83C98.18,87.8,98.5,88.9,98.5,90v0.14
		l0.07,0.12c4.49,7.7,13.17,12.12,23.79,12.12c0,0,0,0,0,0c2.76,0,5.56-0.31,8.26-0.92c-8.47,4.71-18.33,7.1-29.38,7.1
		c-13.28,0-28.1-3.37-44.04-10.01c-2.77-0.8-5.33-1.19-7.66-1.19c-5.51,0-9.54,2.15-11.97,6.4
		C32.48,111.38,30.73,120.91,32.59,130.37z"/>
	<path d="M102.84,6.88c6.13,12.67,7.21,28.74,3.19,47.87c-0.99,3.28-2.33,6.63-3.63,9.88C99.75,71.27,97,78.14,97,85
		c0,0.56,0.19,1.21,0.41,1.97c0.28,0.94,0.59,2,0.59,3.03v0.27l0.14,0.23c4.59,7.86,13.41,12.37,24.22,12.37
		c1.69,0,3.4-0.12,5.08-0.34c-7.71,3.67-16.5,5.52-26.21,5.52c-13.21,0-27.97-3.36-43.85-9.98l-0.05-0.02l-0.06-0.02
		c-2.76-0.79-5.37-1.19-7.74-1.19c-5.61,0-9.89,2.29-12.38,6.62c-4.55,6.84-6.46,15.15-5.57,23.58c-3.77-8.69-5.52-18.47-5.21-29.15
		c0.35-11.84,3.31-24.46,8.54-36.51c4.41-10.29,3.65-18.08-2.31-23.18c-6.01-4.67-13.5-7.25-21.1-7.25c-1.33,0-2.66,0.08-3.97,0.23
		c7.62-3.29,16.18-4.96,25.56-4.96c11.69,0,24.67,2.66,37.55,7.7c4.71,1.77,9.31,3.35,13.9,3.35c4.42,0,8.07-1.5,11.15-4.58
		l0.02-0.02l0.02-0.02C101.97,25.67,104.42,16.54,102.84,6.88 M100,0c4,11,3,23-5,32c-3.17,3.17-6.74,4.29-10.45,4.29
		c-4.49,0-9.17-1.64-13.55-3.29c-12.02-4.7-25.13-7.77-37.9-7.77C21.42,25.23,10.03,27.79,0,34c3.78-1.37,7.67-2.04,11.52-2.04
		c7.37,0,14.57,2.44,20.48,7.04c7,6,5,15,2,22c-10,23-13,51,0,73c-3-10-2-21,4-30c2.61-4.56,6.91-6.15,11.53-6.15
		C52,97.85,54.56,98.3,57,99c13.61,5.67,29.14,10.05,44.24,10.05c11.53,0,22.8-2.56,32.76-9.05c-3.63,1.21-7.63,1.87-11.64,1.87
		c-9.22,0-18.48-3.51-23.36-11.87c0-2-1-4-1-5c0-10,6-20,9-30C111,36,111,16,100,0L100,0z"/>
</g>
</svg>
